inDegrees=no
num_controls=7
num_derivatives=13
num_iterations=141
num_multipliers=7
num_parameters=0
num_slacks=7
num_states=26
objective=0.516808
objective_accelerations=0.039039
objective_balance=0.002208
objective_effort=0.043499
objective_height=0.420395
objective_ligament=0.011667
solver_duration=1871.259510
status=Solve_Succeeded
success=true
DataType=double
version=3
OpenSimVersion=4.5
endheader
time	/jointset/ground_pelvis/pelvis_tilt/value	/jointset/ground_pelvis/pelvis_tx/value	/jointset/ground_pelvis/pelvis_ty/value	/jointset/hip_l/hip_flexion_l/value	/jointset/hip_l/hip_adduction_l/value	/jointset/hip_l/hip_rotation_l/value	/jointset/back/lumbar_extension/value	/jointset/patellofemoral_l/patellar_flexion_l/value	/jointset/knee_l/knee_flexion_l/value	/jointset/knee_l/knee_adduction_l/value	/jointset/knee_l/knee_rotation_l/value	/jointset/ankle_l/ankle_angle_l/value	/jointset/subtalar_l/subtalar_angle_l/value	/jointset/ground_pelvis/pelvis_tilt/speed	/jointset/ground_pelvis/pelvis_tx/speed	/jointset/ground_pelvis/pelvis_ty/speed	/jointset/hip_l/hip_flexion_l/speed	/jointset/hip_l/hip_adduction_l/speed	/jointset/hip_l/hip_rotation_l/speed	/jointset/back/lumbar_extension/speed	/jointset/patellofemoral_l/patellar_flexion_l/speed	/jointset/knee_l/knee_flexion_l/speed	/jointset/knee_l/knee_adduction_l/speed	/jointset/knee_l/knee_rotation_l/speed	/jointset/ankle_l/ankle_angle_l/speed	/jointset/subtalar_l/subtalar_angle_l/speed	/forceset/tau_hip_flexion_l	/forceset/tau_hip_adduction_l	/forceset/tau_hip_rotation_l	/forceset/tau_knee_flexion_l	/forceset/tau_ankle_angle_l	/forceset/tau_subtalar_angle_l	/forceset/tau_lumbar_extension	lambda_cid13_p0	lambda_cid13_p1	lambda_cid13_p2	lambda_cid13_p3	lambda_cid13_p4	lambda_cid13_p5	lambda_cid14_p0	/jointset/ground_pelvis/pelvis_tilt/accel	/jointset/ground_pelvis/pelvis_tx/accel	/jointset/ground_pelvis/pelvis_ty/accel	/jointset/hip_l/hip_flexion_l/accel	/jointset/hip_l/hip_adduction_l/accel	/jointset/hip_l/hip_rotation_l/accel	/jointset/back/lumbar_extension/accel	/jointset/patellofemoral_l/patellar_flexion_l/accel	/jointset/knee_l/knee_flexion_l/accel	/jointset/knee_l/knee_adduction_l/accel	/jointset/knee_l/knee_rotation_l/accel	/jointset/ankle_l/ankle_angle_l/accel	/jointset/subtalar_l/subtalar_angle_l/accel	gamma_cid13_p0	gamma_cid13_p1	gamma_cid13_p2	gamma_cid13_p3	gamma_cid13_p4	gamma_cid13_p5	gamma_cid14_p0
1.5	-0.01426898918494977	-0.02558129867389555	0.869566351037333	0.6279473163853485	-0.312190691207053	-0.1798210288181472	-0.7848242423305886	0.633521371994138	0.6335213719941423	-0.1086762516446438	-0.1745326165120251	0.06793331544867841	0.005296646888232781	0.387070657148615	0.2786743448961809	0.3390757770049065	-1.853492689826292	0.09436035409830096	-0.5307193987698798	0.8408636245341945	-1.623843072552938	-1.623843072552932	-0.1254756853185517	2.763408711532113e-05	-0.2446859570780179	0.02344837159931742	-0.2055505624202757	0.01570510061463772	-0.003784522959752959	-0.1887398060262805	0.09636691746560692	0.04595998731654283	0.2815849013082532	-11.71923638817535	-20.08841242865183	5.238354591913289	-8.636967471655359	-674.225562233927	-80.71722332649176	-20.10115384717575	-0.009096649843780473	0.6358232941139303	-0.487892740892952	-0.6545609422468239	0.3174596885342061	-0.2245340141538538	1.78924512087914	-0.6407165088031151	-0.640716508803115	-0.2855058124495891	0.03406814312808019	0.04830957234430504	0.3432282836490951	-2.031151055103575e-09	9.942118495189606e-07	1.515326431285647e-07	1.553622960935421e-07	7.728472456487758e-08	1.40518795720625e-07	9.607632947121479e-08
1.51	-0.01039917056937113	-0.02276304408926782	0.872932058503856	0.6093816864427557	-0.3112317118562358	-0.1851404754748088	-0.7763274152119641	0.6172529763073823	0.617252976307385	-0.1099453309778487	-0.1745323657342286	0.06548918060156099	0.005547849717424344	0.386841632839583	0.2849451216104438	0.3340010875259132	-1.859400021192208	0.09742306061942949	-0.53310582389788	0.8583805806262189	-1.629617678494615	-1.62961767849461	-0.1283483615775939	2.751325906435575e-05	-0.2440932653541036	0.02679226447358449	-0.197990683489833	0.01480052457548669	-0.003758699198941728	-0.1862341660910658	0.09607276643018728	0.04505748531119756	0.2745442892276097	-11.6211865173116	-19.75939963949889	5.238188175013532	-8.433995834894997	-670.4588724166025	-80.64180094520995	-20.56261528437381	-0.0375304508659102	0.6180200223457236	-0.5269356545587118	-0.5238398686065741	0.2986359568931917	-0.2360016913560246	1.714738068702612	-0.5130937050256291	-0.5130937050256948	-0.2891809555629525	-0.01629098507933885	0.07193822614908169	0.3297916839611056	-9.06702724500946e-09	1.033291794995217e-06	1.775775613718729e-07	1.608160689647289e-07	7.812941576900439e-08	1.4335039094322e-07	9.541127242521766e-08
1.52	-0.006533187222768948	-0.0198830187050448	0.8762450833549578	0.5907639790595355	-0.310242513475609	-0.1904818473685973	-0.7676590550893517	0.6009333823475738	0.6009333823475762	-0.1112433435582297	-0.174531963922576	0.06305241052242952	0.005832455854287698	0.38630360335323	0.2910285048152398	0.3285392539206728	-1.863908177951828	0.1004041600601987	-0.5351044461951976	0.8751702253317833	-1.634082727163318	-1.634082727163312	-0.1312623347538932	5.784085870720903e-05	-0.2432130034808257	0.03012903313367523	-0.1904308045593906	0.01389594853633521	-0.003732875438120553	-0.1837285261558517	0.09577861539476738	0.04415498330585148	0.267503677146966	-11.52880060428551	-19.42937004355684	5.23783097758852	-8.234834548347546	-666.7894810609718	-80.58385859674139	-21.00008454967994	-0.07089768530798699	0.5983445922205367	-0.5653215661423712	-0.3747260209876176	0.301138272462337	-0.1469734480173548	1.643782843587135	-0.3788050542081668	-0.3788050542081668	-0.2937651959010347	0.04015782866683651	0.1058236022170085	0.3418034408138273	-6.123344505762344e-09	1.039267648490607e-06	1.531739401668472e-07	1.568541765852397e-07	8.799939177970945e-08	1.51647364953277e-07	9.798986306080344e-08
1.53	-0.002674167433642401	-0.01694316442288403	0.8795016034332701	0.5721082469615431	-0.3092239597962955	-0.1958412342884147	-0.758826599407777	0.5845756963581097	0.5845756963581146	-0.1125707847810512	-0.1745310920434249	0.06062584225448167	0.006150333606584184	0.3854434769804256	0.2969035483434316	0.3227045705134827	-1.866990511318292	0.103293269039645	-0.5367310404828326	0.8911838798210965	-1.637226939997767	-1.637226939997767	-0.1342153879603489	0.0001027605520616853	-0.2420531785168146	0.03344629865290381	-0.1826736060372465	0.01287173616295533	-0.003769645668530258	-0.181424331310045	0.09567418837939526	0.04316760174342253	0.2602876959503252	-11.38498086683164	-19.06813047432235	5.228668697514792	-8.013398075946567	-663.1865519200367	-80.49511223556678	-21.41078789870798	-0.1021091645773767	0.5762908243533182	-0.6015468369861733	-0.2378357850223866	0.2806561285132247	-0.1641274025281019	1.559602077304914	-0.2481212363753955	-0.2481212363761625	-0.2943215255554219	-0.01542394457030988	0.128207960436877	0.3264943502398999	7.423619595709719e-09	1.010070404256325e-06	7.516874579796724e-08	1.428881398769076e-07	1.074587328974038e-07	1.657513039250125e-07	1.040148293580711e-07
1.54	0.001174543281494223	-0.01394571838719436	0.8826979756557148	0.5534291217717768	-0.3081769432436221	-0.2012156121477866	-0.7498381181161689	0.5681933898726396	0.5681933898726452	-0.1139274057644457	-0.174530187564186	0.05821230143956273	0.006501345262625463	0.3842417885551915	0.3025468555210191	0.3165096827471408	-1.868586796306619	0.1060967347321892	-0.5381026341061287	0.9063753473384691	-1.6390068263647	-1.639006826364705	-0.137098286868308	6.43608758134447e-05	-0.2406075128750552	0.03675581388263344	-0.1749164075151022	0.01184752378957544	-0.003806415898952007	-0.1791201364642373	0.09556976136402343	0.0421802201809943	0.2530717147536846	-11.24690891757425	-18.70544276335733	5.218771041069399	-7.795429077589366	-659.6816765768988	-80.4267563498959	-21.79203907158631	-0.1392100957939176	0.5519973220996721	-0.6373624379727192	-0.0775163453600079	0.2840096150819112	-0.09597331514958166	1.479345449199036	-0.105939760704982	-0.105939760704982	-0.2797343362017323	0.02349395474628602	0.1629917377666363	0.3402533829140326	1.186755408990533e-08	9.950467566648993e-07	4.099625300931307e-08	1.351281136096246e-07	1.18486091519859e-07	1.722706467206867e-07	1.055376071635115e-07
